<?xml version="1.0" standalone="no"?>
<svg xmlns:xlink="http://www.w3.org/1999/xlink" id="wave" style="transform:rotate(180deg); transition: 0.3s" viewBox="0 0 1440 260" version="1.1" xmlns="http://www.w3.org/2000/svg"><defs><linearGradient id="sw-gradient-0" x1="0" x2="0" y1="1" y2="0"><stop stop-color="rgba(255, 249, 234, 1)" offset="0%"/><stop stop-color="rgba(255, 249, 234, 1)" offset="100%"/></linearGradient></defs><path style="transform:translate(0, 0px); opacity:1" fill="url(#sw-gradient-0)" d="M0,104L80,91C160,78,320,52,480,65C640,78,800,130,960,138.7C1120,147,1280,113,1440,86.7C1600,61,1760,43,1920,43.3C2080,43,2240,61,2400,86.7C2560,113,2720,147,2880,173.3C3040,199,3200,217,3360,212.3C3520,208,3680,182,3840,160.3C4000,139,4160,121,4320,117C4480,113,4640,121,4800,134.3C4960,147,5120,165,5280,156C5440,147,5600,113,5760,108.3C5920,104,6080,130,6240,117C6400,104,6560,52,6720,52C6880,52,7040,104,7200,138.7C7360,173,7520,191,7680,182C7840,173,8000,139,8160,121.3C8320,104,8480,104,8640,95.3C8800,87,8960,69,9120,52C9280,35,9440,17,9600,30.3C9760,43,9920,87,10080,125.7C10240,165,10400,199,10560,182C10720,165,10880,95,11040,86.7C11200,78,11360,130,11440,156L11520,182L11520,260L11440,260C11360,260,11200,260,11040,260C10880,260,10720,260,10560,260C10400,260,10240,260,10080,260C9920,260,9760,260,9600,260C9440,260,9280,260,9120,260C8960,260,8800,260,8640,260C8480,260,8320,260,8160,260C8000,260,7840,260,7680,260C7520,260,7360,260,7200,260C7040,260,6880,260,6720,260C6560,260,6400,260,6240,260C6080,260,5920,260,5760,260C5600,260,5440,260,5280,260C5120,260,4960,260,4800,260C4640,260,4480,260,4320,260C4160,260,4000,260,3840,260C3680,260,3520,260,3360,260C3200,260,3040,260,2880,260C2720,260,2560,260,2400,260C2240,260,2080,260,1920,260C1760,260,1600,260,1440,260C1280,260,1120,260,960,260C800,260,640,260,480,260C320,260,160,260,80,260L0,260Z"/></svg>